<svg width="176" height="171" viewBox="0 0 176 171" fill="none" xmlns="http://www.w3.org/2000/svg">
<g opacity="0.1" clip-path="url(#clip0_945_3960)">
<path d="M77.9216 21.6568C80.7585 22.791 83.9743 21.4102 85.1086 18.5759C86.2428 15.739 84.862 12.5232 82.0251 11.389C79.1882 10.2547 75.9724 11.6355 74.8381 14.4698C73.7039 17.3067 75.0847 20.5225 77.9216 21.6568Z" fill="white"/>
<path d="M160.997 100.218C163.802 99.0135 165.103 95.7639 163.898 92.9556C162.694 90.1498 159.445 88.8495 156.636 90.0538C153.83 91.2581 152.53 94.5077 153.734 97.316C154.939 100.122 158.188 101.422 160.997 100.218Z" fill="white"/>
<path d="M131.605 52.3147C133.746 50.137 133.718 46.6357 131.543 44.4944C129.365 42.3531 125.864 42.3817 123.722 44.5567C121.581 46.7343 121.61 50.2357 123.785 52.3769C125.962 54.5182 129.461 54.4923 131.605 52.3147Z" fill="white"/>
<path d="M169.928 145.893C166.873 145.917 164.418 148.414 164.444 151.468C164.467 154.523 166.964 156.979 170.019 156.953C173.074 156.929 175.529 154.432 175.503 151.378C175.48 148.323 172.983 145.867 169.93 145.893H169.928Z" fill="white"/>
<path d="M24.9718 11.0596C28.0267 11.0363 30.4821 8.53938 30.4561 5.48447C30.4302 2.42956 27.9359 -0.0231941 24.881 0.000165477C21.8261 0.023525 19.3707 2.5204 19.3967 5.57531C19.42 8.63022 21.9169 11.0856 24.9718 11.0596Z" fill="white"/>
<path d="M46.2081 111.147C43.9708 112.811 41.6322 114.334 39.2028 115.707C38.9796 115.835 38.759 115.964 38.5332 116.089C38.676 116.216 38.8265 116.338 38.9718 116.463C40.8043 118.051 42.7405 119.544 44.7832 120.919C46.0731 121.789 47.3917 122.601 48.7336 123.362C49.5122 123.803 50.3012 124.226 51.0955 124.631C51.2252 124.698 51.355 124.768 51.4848 124.833C51.5107 124.594 51.5445 124.356 51.573 124.117C51.5808 124.06 51.5886 124.003 51.5964 123.946C51.9312 121.251 52.427 118.568 53.094 115.907C53.5508 114.09 54.0829 112.284 54.698 110.493C56.559 105.066 59.1415 99.7944 62.4845 94.8084C64.2443 92.1843 66.1572 89.7238 68.205 87.4294C77.484 77.0188 89.5089 70.0369 102.437 66.8548C103.205 62.2867 103.444 57.7057 103.161 53.1817C102.845 48.1205 101.884 43.1345 100.285 38.3198C92.011 38.8856 84.0739 41.1853 76.9104 44.9098C75.501 45.6417 74.1202 46.423 72.7731 47.2639C73.5336 52.5043 73.6763 57.7498 73.2221 62.92C72.7757 67.989 71.7557 72.9828 70.1724 77.8208C68.2647 83.6555 65.5394 89.2644 62.0277 94.5047C57.6647 101.012 52.3153 106.608 46.2107 111.15L46.2081 111.147ZM80.4428 63.5533C80.8036 59.4602 80.8218 55.3282 80.5025 51.2117C85.1018 48.8524 89.9346 47.2042 94.9283 46.2854C95.4319 48.7018 95.7641 51.1572 95.9172 53.6307C96.073 56.1328 96.047 58.6582 95.8394 61.1784C90.2045 62.9693 84.8474 65.3987 79.8511 68.4173C80.1028 66.8029 80.3001 65.1807 80.4428 63.5533Z" fill="white"/>
<path d="M51.4955 139.866C51.2567 137.72 51.114 135.56 51.0802 133.396C49.0947 132.524 47.1454 131.55 45.2351 130.481C43.5792 129.554 41.9518 128.558 40.3582 127.486C38.7724 126.416 37.2462 125.287 35.7719 124.106C34.0382 122.715 32.377 121.254 30.8041 119.715C28.7745 120.517 26.6955 121.218 24.5749 121.825C22.7425 122.349 20.8789 122.803 18.9894 123.177C17.118 123.546 15.2467 123.834 13.3727 124.044C11.2003 124.288 9.03046 124.433 6.86322 124.467C5.98594 126.463 5.00483 128.42 3.93029 130.338C3.01408 131.973 2.02778 133.583 0.968818 135.156C-0.0979342 136.739 -1.22438 138.262 -2.40274 139.734C-3.79912 141.476 -5.26817 143.144 -6.8125 144.725C-6.0027 146.781 -5.29933 148.87 -4.69458 150.988C-3.65378 154.635 -2.91665 158.365 -2.49618 162.136C-2.2574 164.282 -2.11464 166.444 -2.0809 168.609C-0.0953383 169.481 1.85389 170.454 3.76677 171.524C5.42011 172.45 7.04749 173.444 8.63593 174.516C10.2218 175.586 11.7505 176.717 13.2274 177.898C14.9612 179.287 16.6197 180.751 18.1926 182.287C20.2223 181.485 22.3013 180.784 24.4192 180.18C26.2542 179.655 28.1178 179.201 30.0099 178.827C31.8813 178.456 33.7578 178.171 35.6318 177.958C37.8016 177.714 39.9689 177.571 42.1335 177.535C43.0108 175.542 43.9893 173.587 45.0639 171.669C45.9827 170.031 46.969 168.42 48.0305 166.844C49.0973 165.261 50.2237 163.735 51.4047 162.263C52.8011 160.521 54.2701 158.858 55.8144 157.277C55.0046 155.224 54.3013 153.132 53.6965 151.014C52.6557 147.365 51.9186 143.635 51.4981 139.866H51.4955ZM45.7439 157.729C44.4228 159.377 43.1691 161.082 42.0141 162.795C40.8695 164.495 39.7664 166.289 38.736 168.126C38.2974 168.91 37.8691 169.704 37.459 170.501C36.5792 170.569 35.6967 170.654 34.8168 170.753C32.7196 170.989 30.6277 171.313 28.6006 171.713C26.5501 172.118 24.4737 172.622 22.4233 173.208C21.5642 173.455 20.7102 173.714 19.8641 173.989C19.1763 173.398 18.4755 172.814 17.7643 172.243C16.111 170.919 14.4058 169.66 12.6901 168.503C10.9693 167.342 9.15764 166.231 7.31223 165.196C6.53358 164.76 5.74974 164.339 4.96071 163.934C4.89322 163.068 4.81016 162.198 4.71413 161.331C4.24953 157.173 3.43195 153.026 2.28214 149C2.03298 148.128 1.76824 147.261 1.49052 146.402C2.09267 145.704 2.68186 144.992 3.26065 144.271C4.58436 142.62 5.83799 140.918 6.98779 139.207C8.13241 137.507 9.2329 135.716 10.2581 133.886C10.6994 133.097 11.1276 132.303 11.5403 131.504C12.4228 131.436 13.3078 131.35 14.1903 131.252C16.2849 131.016 18.3743 130.691 20.3988 130.292C22.4466 129.887 24.523 129.383 26.5735 128.799C27.4326 128.553 28.2891 128.293 29.1378 128.018C29.8282 128.612 30.529 129.196 31.2428 129.767C32.8935 131.091 34.5988 132.347 36.3144 133.505C38.0404 134.668 39.8521 135.781 41.7001 136.814C42.4761 137.247 43.26 137.671 44.049 138.075C44.1165 138.942 44.1969 139.812 44.2956 140.676C44.7602 144.832 45.5778 148.982 46.7276 153.01C46.9767 153.879 47.2415 154.746 47.5192 155.605C46.917 156.301 46.3279 157.012 45.7491 157.734L45.7439 157.729Z" fill="white"/>
<path d="M81.0011 188.548C74.3981 184.12 68.8307 178.724 64.3509 172.671C62.682 170.418 61.1662 168.075 59.8036 165.656C59.6816 165.44 59.5544 165.225 59.435 165.007C59.3 165.16 59.1703 165.316 59.0379 165.471C57.4546 167.299 55.9674 169.232 54.5918 171.27C53.2214 173.299 51.9911 175.397 50.8932 177.546C50.8257 177.678 50.753 177.81 50.6855 177.943C50.9191 177.969 51.1527 178.003 51.3863 178.031C54.1531 178.368 56.8914 178.882 59.5907 179.562C67.0217 181.436 74.1567 184.59 80.7103 188.984C94.8195 198.44 104.669 212.536 108.692 228.926C118.369 230.551 128.104 229.783 137.217 226.757C136.573 217.088 133.552 207.693 128.304 199.288C111.708 201.712 95.0324 197.952 80.9985 188.551L81.0011 188.548ZM118.638 222.505C117.221 222.505 115.794 222.445 114.369 222.331C112.581 216.714 110.151 211.37 107.138 206.39C110.87 206.966 114.657 207.259 118.472 207.259C120.429 207.259 122.397 207.181 124.362 207.025C126.687 211.57 128.338 216.429 129.254 221.407C125.771 222.136 122.22 222.505 118.638 222.505Z" fill="white"/>
<path d="M91.038 137.772C83.3242 139.274 75.561 139.425 68.0159 138.291C65.2569 137.875 62.529 137.289 59.8427 136.531C59.6013 136.463 59.3599 136.401 59.1211 136.331C59.1289 136.458 59.1445 136.585 59.1522 136.713C59.5052 141.589 60.4604 146.412 61.9839 151.055C62.041 151.227 62.0904 151.398 62.1475 151.569C62.3577 151.403 62.5705 151.245 62.7808 151.081C64.9895 149.373 67.3047 147.806 69.7108 146.391C76.2514 142.539 83.4669 139.783 91.1367 138.291C107.634 135.075 124.38 138.026 138.691 146.596C146.748 140.93 153.154 133.512 157.512 124.932C150.299 118.682 141.65 114.251 132.146 112.029C122.091 125.453 107.616 134.545 91.038 137.777V137.772ZM148.046 126.782C145.281 130.94 141.907 134.711 138.048 137.948C132.968 135.35 127.627 133.349 122.132 131.978C126.77 128.607 131.024 124.69 134.806 120.293C139.514 121.827 143.984 124.021 148.048 126.785L148.046 126.782Z" fill="white"/>
<path d="M138.667 156.029C138.244 155.728 137.823 155.429 137.39 155.139C135.264 153.706 133.071 152.424 130.82 151.287C119.073 145.359 105.774 143.498 92.651 146.054C87.3484 147.087 82.2897 148.806 77.5737 151.134C74.8199 152.491 72.1828 154.056 69.6808 155.821C68.1806 156.88 66.7271 158.007 65.3281 159.203C66.1379 160.82 67.023 162.401 67.9833 163.945C69.5822 166.523 71.3912 168.991 73.4001 171.324C76.8262 175.308 80.8363 178.906 85.4121 181.971C96.5962 189.464 109.683 192.898 122.904 191.92C125.326 191.74 127.755 191.413 130.174 190.936C130.763 190.819 131.35 190.692 131.934 190.559C141.449 188.387 150.123 184.003 157.37 177.795C153.061 169.188 146.692 161.739 138.669 156.029H138.667ZM130.317 183.489C129.746 183.619 129.24 183.728 128.767 183.822C126.657 184.239 124.503 184.53 122.367 184.688C121.08 184.784 119.774 184.831 118.487 184.831C108.162 184.831 98.1197 181.758 89.4482 175.947C85.5212 173.315 81.9705 170.169 78.9 166.595C77.4076 164.859 76.0242 163.021 74.781 161.113C76.6886 159.829 78.7054 158.663 80.7844 157.636C84.9657 155.572 89.4274 154.069 94.0422 153.171C97.3956 152.517 100.806 152.188 104.183 152.188C112.366 152.188 120.231 154.064 127.558 157.76C129.549 158.765 131.495 159.907 133.346 161.152C133.714 161.402 134.104 161.674 134.467 161.936C139.796 165.728 144.372 170.483 147.917 175.885C142.609 179.451 136.621 182.049 130.322 183.487L130.317 183.489Z" fill="white"/>
<path d="M19.568 82.8614C20.601 88.1588 22.3166 93.2096 24.6422 97.9257C26.0022 100.685 27.5699 103.33 29.3374 105.834C30.399 107.337 31.528 108.793 32.7272 110.195C34.3545 109.38 35.9378 108.487 37.477 107.526C40.0699 105.909 42.533 104.093 44.8508 102.089C48.853 98.6265 52.4219 94.6112 55.4482 90.095C58.3889 85.706 60.7067 81.0186 62.3756 76.1494C64.9504 68.6406 65.9782 60.6906 65.3968 52.6886C65.2203 50.2359 64.8959 47.7805 64.4105 45.3304C64.2989 44.7645 64.1769 44.2013 64.0471 43.6381C61.8799 34.1022 57.4987 25.4125 51.2799 18.1528C42.6757 22.4666 35.224 28.8411 29.5191 36.8742C29.2258 37.2869 28.9325 37.6996 28.6496 38.1226C27.2091 40.2587 25.9218 42.4649 24.7797 44.7282C18.8672 56.4651 17.0114 69.7515 19.5654 82.8614H19.568ZM31.2607 47.9908C32.2704 45.987 33.415 44.0326 34.6686 42.1742C34.9152 41.8109 35.1799 41.4319 35.4369 41.0737C39.2237 35.7426 43.9787 31.1641 49.3799 27.6134C52.9514 32.929 55.5468 38.9298 56.9822 45.2473C57.1145 45.8261 57.2158 46.3011 57.3014 46.7371C57.7167 48.8473 58.01 51.0275 58.1683 53.2155C58.6796 60.2545 57.7868 67.1793 55.5183 73.7979C54.044 78.1012 51.9936 82.2255 49.4241 86.0564C46.7922 89.9834 43.6568 93.5315 40.1062 96.602C38.3724 98.1022 36.5348 99.4882 34.6323 100.737C33.3449 98.8237 32.1743 96.8018 31.1465 94.7176C29.0857 90.5389 27.5855 86.0824 26.6874 81.4728C24.4449 69.9591 26.0256 58.3806 31.2607 47.9882V47.9908Z" fill="white"/>
<path d="M169.618 168.49C166.133 162.146 161.785 156.408 156.644 151.357C161.816 146.332 166.195 140.617 169.715 134.291C171.243 131.545 172.609 128.67 173.779 125.747L175.518 121.392L172.261 118.018C170.07 115.747 167.716 113.603 165.271 111.643C159.68 107.161 153.537 103.553 146.929 100.861C149.81 94.1727 151.673 87.1415 152.488 79.8715C152.839 76.7543 152.989 73.567 152.94 70.3979L152.867 65.739L148.6 63.8702C145.691 62.5958 142.69 61.5057 139.69 60.631C132.892 58.6377 125.838 57.628 118.721 57.628C118.627 57.628 118.531 57.628 118.438 57.628C118.518 50.4177 117.55 43.28 115.544 36.3189C114.674 33.3081 113.595 30.3051 112.336 27.3956L110.485 23.1182L105.826 23.0247C105.32 23.0143 104.814 23.0092 104.31 23.0092C101.645 23.0092 98.9663 23.1545 96.3578 23.44C89.4278 24.1875 82.6224 25.9109 76.1336 28.5661C75.8559 28.6803 75.5782 28.7945 75.3004 28.9113C72.6452 22.2694 69.0634 16.0921 64.6044 10.4677C62.6603 8.01232 60.5294 5.64782 58.2713 3.44164L54.9102 0.158326L50.5393 1.88434C47.6168 3.03674 44.741 4.389 41.9846 5.90218C35.6359 9.39054 29.8973 13.7432 24.8438 18.8927C19.7982 13.7043 14.0621 9.30229 7.79135 5.81393C5.05569 4.29037 2.18246 2.91994 -0.747856 1.74677L-5.10831 0L-8.48505 3.26515C-10.7431 5.44797 -12.8844 7.7969 -14.8518 10.2497C-19.3317 15.8378 -22.9394 21.9813 -25.631 28.5947C-32.3352 25.7059 -39.3794 23.8371 -46.6623 23.0273C-49.385 22.7211 -52.1441 22.5653 -54.8589 22.5653C-55.2924 22.5653 -55.7258 22.5705 -56.1619 22.5783L-60.8027 22.6614L-62.6714 26.9102C-63.5072 28.8101 -64.2728 30.7697 -64.9451 32.7293C-65.3162 33.8142 -65.6381 34.8291 -65.9314 35.8309C-67.974 42.7661 -68.9811 49.8856 -68.9422 57.0881C-69.1887 57.0881 -69.4327 57.0855 -69.6767 57.0855C-76.643 57.0855 -83.5548 58.064 -90.2097 59.9899C-93.2646 60.8698 -96.2754 61.9521 -99.159 63.2083L-103.413 65.0615L-103.514 69.6997C-103.558 71.7761 -103.517 73.8759 -103.387 75.9445C-103.314 77.0917 -103.226 78.1559 -103.109 79.1966C-102.333 86.4796 -100.503 93.5264 -97.651 100.241C-104.275 102.907 -110.447 106.483 -116.048 110.909C-118.514 112.858 -120.881 114.983 -123.079 117.231L-126.365 120.59L-124.644 124.961C-123.487 127.899 -122.134 130.78 -120.624 133.526C-117.13 139.88 -112.775 145.621 -107.623 150.677C-112.791 155.71 -117.177 161.427 -120.697 167.724C-122.23 170.468 -123.603 173.338 -124.774 176.258L-126.523 180.616L-123.261 183.995C-121.07 186.266 -118.716 188.41 -116.269 190.373C-110.68 194.85 -104.54 198.458 -97.9365 201.146C-98.6789 202.872 -99.3537 204.622 -99.961 206.387C-101.713 211.495 -102.902 216.795 -103.496 222.123C-103.616 223.162 -103.712 224.244 -103.787 225.344C-103.927 227.416 -103.984 229.521 -103.953 231.6L-103.885 236.266L-99.6106 238.138C-96.6985 239.412 -93.6955 240.505 -90.6951 241.379C-83.9001 243.37 -76.8455 244.38 -69.7286 244.38C-69.6326 244.38 -69.5391 244.38 -69.4431 244.38C-69.4639 246.191 -69.4171 247.995 -69.3055 249.789C-68.9707 255.18 -68.0415 260.532 -66.5517 265.678C-66.2636 266.686 -65.9392 267.721 -65.5888 268.767C-64.9269 270.735 -64.1742 272.702 -63.3488 274.61L-61.5008 278.895L-56.8367 278.988C-56.3306 278.999 -55.8271 279.004 -55.3235 279.004C-52.6554 279.004 -49.9742 278.858 -47.3605 278.573C-40.0672 277.787 -33.0152 275.954 -26.3084 273.109C-23.6532 279.746 -20.0766 285.916 -15.6253 291.532C-13.6864 293.985 -11.5555 296.35 -9.29226 298.558L-5.93108 301.839L-1.56285 300.113C1.3545 298.961 4.23293 297.603 6.98935 296.08C13.3328 292.578 19.0636 288.228 24.1093 283.094C29.1368 288.278 34.8573 292.667 41.1851 296.189C43.9156 297.712 46.7888 299.083 49.7243 300.256L54.0848 302.003L57.4615 298.737C59.717 296.555 61.8583 294.201 63.8205 291.74C68.2926 286.139 71.8978 279.995 74.5867 273.398C81.3013 276.294 88.3559 278.165 95.6466 278.978C98.3667 279.284 101.136 279.44 103.882 279.44C104.303 279.44 104.72 279.437 105.141 279.429L109.787 279.352L111.658 275.1C112.93 272.209 114.025 269.208 114.916 266.187C116.961 259.252 117.965 252.13 117.926 244.927C118.17 244.927 118.417 244.93 118.661 244.93C125.627 244.93 132.537 243.952 139.191 242.028C142.223 241.156 145.231 240.074 148.138 238.812L152.4 236.962L152.501 232.316C152.569 229.16 152.434 225.97 152.099 222.834C151.325 215.557 149.498 208.515 146.651 201.806C153.277 199.148 159.439 195.574 165.05 191.123C167.514 189.171 169.875 187.037 172.074 184.782L175.347 181.423L173.629 177.06C172.471 174.122 171.119 171.241 169.611 168.495L169.618 168.49ZM160.552 185.433C153.493 191.032 145.345 195.156 136.492 197.572C141.091 205.673 143.931 214.503 144.899 223.595C145.203 226.429 145.325 229.284 145.262 232.152C142.63 233.294 139.936 234.262 137.198 235.052C128.498 237.569 119.344 238.288 110.192 237.138C111.295 246.293 110.529 255.444 107.97 264.129C107.165 266.862 106.187 269.546 105.032 272.175C102.164 272.224 99.3037 272.087 96.472 271.768C87.3618 270.753 78.5241 267.859 70.4313 263.197C68.0201 271.843 63.8958 280.037 58.1675 287.208C56.4078 289.414 54.4975 291.522 52.434 293.518C49.784 292.456 47.2119 291.234 44.7358 289.85C36.7883 285.428 29.8038 279.401 24.1612 272.048C18.6016 279.193 11.6042 285.251 3.50099 289.723C1.03266 291.089 -1.53948 292.306 -4.21026 293.36C-6.25292 291.364 -8.16061 289.251 -9.92037 287.027C-15.5215 279.959 -19.6483 271.799 -22.0596 262.932C-29.9914 267.433 -38.8473 270.35 -48.1262 271.352C-50.9449 271.661 -53.8 271.786 -56.6784 271.729C-57.4285 269.99 -58.1033 268.227 -58.7029 266.444C-59.0118 265.525 -59.2999 264.601 -59.5672 263.672C-60.9194 258.998 -61.7526 254.191 -62.0563 249.327C-62.3184 245.125 -62.1783 240.881 -61.6436 236.637C-70.5981 237.707 -79.7888 237.003 -88.6446 234.41C-91.3673 233.616 -94.0537 232.64 -96.6907 231.485C-96.7193 229.593 -96.6673 227.706 -96.5402 225.827C-96.4727 224.859 -96.387 223.896 -96.278 222.936C-95.7382 218.098 -94.6688 213.34 -93.0881 208.731C-91.6995 204.676 -89.9112 200.739 -87.7414 196.965C-96.5739 194.502 -104.698 190.334 -111.724 184.704C-113.94 182.929 -116.045 181.008 -118.031 178.95C-116.962 176.284 -115.729 173.717 -114.353 171.254C-110.452 164.272 -105.373 158.121 -99.4393 153.015C-98.5076 152.213 -97.555 151.44 -96.5817 150.69C-103.896 145.006 -109.878 137.99 -114.257 130.024C-115.625 127.535 -116.837 124.955 -117.886 122.295C-115.877 120.242 -113.759 118.339 -111.545 116.59C-105.269 111.63 -98.2246 107.893 -90.7859 105.442C-89.6906 105.082 -88.5849 104.752 -87.4741 104.448C-92.0785 96.3426 -94.9232 87.5049 -95.8913 78.3998C-95.9977 77.4291 -96.0782 76.4558 -96.1405 75.4799C-96.2573 73.6085 -96.2962 71.7268 -96.2547 69.845C-93.6228 68.7004 -90.9287 67.7349 -88.193 66.9459C-79.4929 64.4282 -70.3385 63.7093 -61.1894 64.8591C-62.2925 55.7047 -61.5268 46.553 -58.965 37.8632C-58.6925 36.9237 -58.394 35.9945 -58.0774 35.0705C-57.47 33.2977 -56.7848 31.5458 -56.0269 29.8198C-53.1563 29.7678 -50.2986 29.908 -47.4695 30.2247C-38.3671 31.2395 -29.5398 34.1257 -21.4548 38.7794C-18.9943 29.9366 -14.8285 21.8074 -9.19363 14.7762C-7.4183 12.5622 -5.50023 10.4573 -3.44199 8.46913C-0.786789 9.53329 1.78535 10.7584 4.26407 12.1392C9.98715 15.3239 15.2067 19.3443 19.793 24.0889C21.5683 25.9265 23.2502 27.8679 24.8257 29.9184C30.5072 22.6043 37.5177 16.6242 45.4807 12.2508C47.9672 10.8855 50.5445 9.67345 53.2075 8.62227C55.2528 10.6208 57.1605 12.7361 58.9228 14.9605C64.5265 22.0281 68.656 30.1935 71.0672 39.0624C73.5848 37.6348 76.1959 36.3656 78.8822 35.2677C84.665 32.9032 90.8034 31.3226 97.1364 30.6399C99.9526 30.3311 102.808 30.2065 105.683 30.2662C106.823 32.898 107.791 35.587 108.58 38.3226C111.092 47.0331 111.809 56.1953 110.651 65.3522C119.606 64.2829 128.799 64.9863 137.652 67.5818C140.372 68.3734 143.059 69.3519 145.693 70.5043C145.737 73.3723 145.605 76.2274 145.286 79.0539C144.266 88.1408 141.385 96.9525 136.744 105.025C145.582 107.488 153.711 111.659 160.737 117.293C162.953 119.069 165.058 120.989 167.044 123.048C165.982 125.703 164.757 128.28 163.376 130.759C158.961 138.696 152.948 145.675 145.61 151.318C152.916 157 158.891 164.013 163.265 171.973C164.633 174.462 165.845 177.042 166.893 179.702C164.897 181.748 162.777 183.663 160.555 185.425L160.552 185.433Z" fill="white"/>
<path d="M69.0607 99.2182C66.9894 102.312 65.2453 105.53 63.8203 108.835C63.2182 110.231 62.6731 111.643 62.1851 113.065C62.1047 113.299 62.0346 113.535 61.9567 113.769C60.999 116.683 60.2723 119.642 59.7817 122.627C59.6234 123.595 59.4884 124.568 59.3768 125.542C59.2808 126.37 59.2003 127.2 59.1406 128.028C60.8848 128.617 62.6498 129.118 64.4355 129.539C67.4073 130.24 70.4311 130.707 73.486 130.94C78.7834 131.345 84.1691 131.044 89.5236 130.003C102.74 127.429 114.438 120.631 123.12 110.615C124.711 108.78 126.201 106.836 127.581 104.788C127.919 104.29 128.243 103.784 128.563 103.278C131.08 99.2909 133.1 95.0758 134.595 90.7127C136.238 85.9162 137.258 80.9406 137.624 75.882C128.324 72.757 118.528 72.0432 109.107 73.5668C106.106 74.0522 103.145 74.7659 100.248 75.7003C87.9274 79.674 76.8056 87.6552 69.0581 99.2182H69.0607ZM110.267 80.7252C113.049 80.2762 115.886 80.0478 118.7 80.0478C122.393 80.0478 126.05 80.4345 129.629 81.2002C129.17 83.627 128.537 86.02 127.735 88.3638C126.419 92.2025 124.633 95.9193 122.432 99.4051C122.102 99.9268 121.827 100.35 121.568 100.737C120.366 102.52 119.045 104.246 117.641 105.865C109.953 114.737 99.7499 120.623 88.1428 122.884C84.8076 123.533 81.4075 123.86 78.0333 123.86C76.707 123.86 75.3625 123.808 74.0388 123.707C71.7107 123.528 69.3903 123.195 67.1296 122.71C67.5501 120.462 68.1263 118.22 68.8478 116.024C68.8842 115.915 68.9179 115.806 68.9516 115.697C68.9828 115.601 69.0113 115.508 69.0425 115.414C69.4655 114.179 69.9483 112.93 70.4778 111.705C71.7444 108.77 73.2939 105.928 75.0848 103.254C81.693 93.3913 91.1666 86.2484 102.475 82.6018C105.021 81.7816 107.643 81.1483 110.264 80.7252H110.267Z" fill="white"/>
<path d="M-52.6207 68.454C-52.1639 70.7718 -51.5722 73.0403 -50.861 75.2568C-46.7705 87.9826 -38.5817 98.8915 -27.3068 106.444C-22.7283 109.515 -17.8306 111.895 -12.7356 113.577C-9.83902 114.535 -6.88015 115.264 -3.87975 115.762C-2.09923 116.058 -0.303143 116.274 1.50333 116.403C1.78883 115.56 2.05357 114.711 2.29755 113.857C2.56489 112.928 2.80887 111.996 3.02949 111.057C3.73027 108.082 4.19487 105.056 4.42587 102.001C4.51671 100.786 4.57122 99.5689 4.58679 98.3464C4.64389 94.2481 4.28311 90.1135 3.4811 85.997C0.908955 72.7937 -5.87569 61.1035 -15.8788 52.4242C-17.7242 50.8227 -19.676 49.3251 -21.7342 47.9391C-22.2222 47.6095 -22.7153 47.2929 -23.2085 46.9788C-31.5971 41.6684 -40.9903 38.5927 -50.6715 37.8945C-53.7498 46.9892 -54.5648 56.7223 -52.9919 66.4062C-52.8803 67.0888 -52.7583 67.774 -52.6233 68.4566L-52.6207 68.454ZM-45.3585 45.8887C-38.9165 47.1086 -32.6873 49.5613 -27.081 53.1094C-26.5774 53.4286 -26.1648 53.696 -25.7806 53.9555C-23.9845 55.165 -22.2507 56.4939 -20.6259 57.9033C-11.7701 65.5886 -5.89386 75.7811 -3.63317 87.383C-2.93758 90.9622 -2.60794 94.6167 -2.65985 98.2452C-2.67543 99.3327 -2.72215 100.412 -2.80261 101.456C-2.97911 103.802 -3.31652 106.138 -3.80447 108.414C-6.0444 107.991 -8.27913 107.415 -10.4594 106.696C-14.9781 105.204 -19.2867 103.094 -23.2682 100.425C-33.1778 93.7861 -40.331 84.3177 -43.9543 73.0455C-44.5876 71.0781 -45.1093 69.0613 -45.5039 67.0576C-45.6181 66.484 -45.7271 65.8767 -45.8283 65.2486C-46.8769 58.8013 -46.7082 52.2113 -45.3559 45.8965L-45.3585 45.8887Z" fill="white"/>
<path d="M9.11465 76.2481C9.99193 78.924 10.7109 81.6701 11.2585 84.4784C12.7587 92.1819 12.9093 99.9372 11.7776 107.472C11.3727 110.161 10.8043 112.824 10.075 115.445C10.0568 115.513 10.0386 115.58 10.0205 115.648C9.9478 115.905 9.88032 116.162 9.80505 116.419C9.94001 116.408 10.0776 116.395 10.2125 116.385C11.2092 116.31 12.2085 116.211 13.2078 116.086C14.6249 115.913 16.0421 115.687 17.4566 115.406C19.8912 114.926 22.2738 114.296 24.5968 113.532C24.7603 113.478 24.9265 113.431 25.09 113.374C24.9239 113.167 24.7655 112.951 24.602 112.741C22.8916 110.529 21.3239 108.214 19.9042 105.806C16.0498 99.265 13.2934 92.0469 11.7984 84.3746C10.8095 79.2978 10.4046 74.1976 10.5655 69.1519C10.7784 62.4919 11.9801 55.9278 14.1369 49.6363C14.4354 48.7694 14.7547 47.9077 15.0895 47.0512C16.4573 43.5447 18.1262 40.1342 20.0884 36.8509C19.3565 35.8075 18.5908 34.7926 17.7992 33.8038C12.481 27.1619 5.89362 21.8073 -1.57884 18.0127C-7.82362 25.2282 -12.2515 33.8816 -14.4707 43.389C-3.33339 51.7387 4.81649 63.1356 9.10945 76.2481H9.11465ZM0.287333 27.4759C4.45571 30.2349 8.19324 33.5883 11.4506 37.492C10.293 39.7526 9.25221 42.0678 8.336 44.4142C7.9285 45.455 7.5833 46.3945 7.27703 47.2848C6.58922 49.2911 5.98966 51.3234 5.47834 53.3739C2.10938 48.7461 -1.80205 44.505 -6.20143 40.726C-4.67008 36.0151 -2.47688 31.5405 0.287333 27.4733V27.4759Z" fill="white"/>
</g>
<defs>
<clipPath id="clip0_945_3960">
<rect width="302.036" height="302" fill="white" transform="translate(-126.518)"/>
</clipPath>
</defs>
</svg>
