<svg width="1440" height="480" viewBox="0 0 1440 480" fill="none" xmlns="http://www.w3.org/2000/svg">
<g opacity="0.1" clip-path="url(#clip0)">
<path fill-rule="evenodd" clip-rule="evenodd" d="M493.053 319.508C492.956 295.387 454.189 268.261 437.63 254.277C404.887 226.617 370.833 201.074 337.094 175.123C303.355 149.173 269.526 123.292 237.354 94.8022C216.464 76.3082 191.92 55.4789 177.752 29.071C147.572 -27.2058 242.728 -18.8488 267.376 -20.0798C330.08 -23.2243 402.003 -21.7892 460.778 -51.0954C495.865 -68.5904 509.856 -97.9318 502.32 -140.695C499.891 -154.603 492.701 -170.606 498.792 -184.155C505.295 -198.625 520.258 -206.975 532.676 -212.575C577.971 -232.975 630.048 -235.339 677.972 -237.899C729.649 -240.713 781.811 -239.89 833.124 -240.108C854.881 -240.2 877.604 -249.253 898.324 -256.611C925.486 -266.256 952.326 -277.089 979.264 -287.563C1038.52 -310.553 1099.59 -334.766 1162.29 -340.604C1201.55 -344.262 1244.47 -339.317 1274.97 -307.5C1290.28 -291.524 1298.3 -267.775 1307.15 -246.678C1317.87 -221.192 1328.16 -195.46 1339.57 -170.374C1376.33 -89.5817 1428.81 -10.6324 1513.99 -6.66486C1526.87 -6.06692 1539.53 -8.01548 1552.35 -8.38128C1560.52 -8.60639 1567.79 -6.32021 1570.83 3.57747C1578.46 28.4026 1554.47 67.5924 1544.63 87.2893C1523.09 130.404 1498.8 171.585 1476.05 213.835C1460.99 241.776 1434.94 279.96 1434.66 313.909C1434.42 344.158 1469.15 366.021 1488.06 380.921C1505.78 394.87 1537.89 414.391 1539.83 442.769C1540.77 456.528 1532.94 467.932 1524.76 476.781C1510.42 492.257 1493.91 503.175 1481.01 520.832C1459.86 549.8 1442.19 589.658 1445.06 628.693C1447.05 655.741 1460.37 673.454 1477.32 690.387C1484.44 697.506 1490.23 702.542 1490.6 714.1C1491.21 732.454 1485 751.876 1479.89 768.893C1461.6 829.791 1435.62 888.678 1406.72 943.66C1392.28 971.138 1376.68 998.53 1357.54 1021.97C1345 1037.36 1328.08 1055.68 1308.96 1055.66C1286.81 1055.66 1263.38 1046.4 1241.85 1039.48C1201.64 1026.54 1161.92 1011.59 1122.36 996.244C1030.87 960.747 940.238 922.376 850.467 881.13C787.234 852.028 722.659 822.883 663.21 784.193C651.616 776.595 640.673 767.736 630.528 757.736C619.688 747.233 606.238 742.534 592.599 739.031C507.949 717.287 415.21 733.98 330.208 744.448C308.632 747.1 287.057 749.766 265.421 751.623C246.821 753.22 224.553 757.799 206.475 750.919C170.854 737.378 201.994 687.467 215.159 667.13C261.51 595.525 321.312 534.943 376.741 473.095C403.096 443.641 429.65 414.265 454.572 383.143C467.549 366.964 493.138 340.654 493.053 319.508Z" stroke="#EF7B14" stroke-width="5"/>
<path fill-rule="evenodd" clip-rule="evenodd" d="M509.026 315.442C494.819 289.918 469.893 271.052 449.202 253.298C419.426 227.738 388.715 203.599 358.465 178.764C329.863 155.279 301.199 131.526 274.711 104.856C258.56 88.5922 238.294 69.1431 230.643 45.0883C214.048 -7.05018 303.326 0.860246 325.366 -0.503863C380.159 -3.87898 442.28 -4.65247 492.972 -32.1034C524.625 -49.2462 537.629 -77.6745 530.878 -117.142C528.544 -130.797 524.339 -142.456 529.662 -156.04C535.818 -171.763 549.976 -181.565 562.956 -188.484C603.615 -210.162 651.675 -214.767 695.749 -218.6C741.281 -222.558 788.721 -225.35 832.789 -222.453C850.411 -221.3 870.695 -227.846 888.135 -232.867C914.969 -240.601 941.53 -249.524 968.231 -257.821C1022.5 -274.697 1078.17 -290.954 1134.62 -292.803C1175.38 -294.139 1217.87 -286.897 1251.78 -258.904C1286.14 -230.518 1301.39 -186.515 1320.44 -144.685C1353.36 -72.3657 1397.81 15.5631 1473.95 30.8425C1485.49 33.1629 1496.59 31.9043 1508.12 32.4739C1514.05 32.7622 1520.8 33.6762 1523.81 40.4475C1531.62 58.0263 1510.22 90.1672 1503.02 103.633C1483.13 140.843 1460.76 176.233 1439.91 212.726C1423.35 241.703 1402.36 273.9 1395.96 308.249C1388.19 349.932 1438.97 379.59 1456.83 408.94C1487.79 459.834 1429.13 488.832 1400.21 513.097C1367 540.956 1339.59 591.78 1369.36 634.883C1380.75 651.365 1394.76 661.188 1399.85 682.697C1407.8 716.336 1401.79 754.777 1395.33 788.029C1385.61 838.016 1370.22 887.461 1349.31 932.638C1334.32 964.983 1309.46 1015.7 1273.06 1011.9C1248.55 1009.36 1223.64 1000.08 1199.77 991.886C1164.04 979.616 1128.76 965.63 1093.67 951.103C1012.66 917.661 932.549 880.788 854.008 840.231C800.419 812.548 650.934 699.418 639.686 695.382C606.149 683.358 568.018 685.474 533.442 687.338C487.448 689.813 441.685 696.226 395.958 702.167C374.192 704.98 352.316 708.418 330.434 709.803C314.859 710.788 294.406 711.632 280.763 701.148C254.136 680.693 283.802 633.891 296.071 614.091C333.654 553.388 381.198 500.82 425.776 447.072C447.652 420.682 469.862 394.335 489.721 365.83C497.73 354.319 517.807 331.207 509.026 315.442Z" stroke="#F7B060" stroke-width="5"/>
<path fill-rule="evenodd" clip-rule="evenodd" d="M528.681 302.352C489.882 251.275 436.33 213.287 390.112 170.629C366.915 149.212 343.572 127.211 323.564 101.701C313.157 88.436 300.161 71.6612 298.156 53.1702C292.797 3.70388 373.264 10.3927 397.348 8.5148C443.913 4.87146 496.516 2.10736 538.761 -23.1357C564.571 -38.5671 577.281 -63.8947 572.457 -97.184C570.318 -111.954 566.989 -124.502 572.457 -139.005C577.998 -153.698 589.542 -164.065 601.232 -171.837C634.824 -194.189 676.571 -201.336 714.392 -206.66C758.761 -212.861 803.463 -215.283 848.137 -213.904C887.265 -212.716 926.205 -226.086 964.409 -234.899C1015.02 -246.568 1066.55 -256.759 1118.34 -255.219C1159.24 -253.995 1200.46 -244.38 1235.43 -218.828C1270.96 -192.804 1292.32 -153.853 1311.58 -111.821C1340.7 -48.2804 1376.98 36.8667 1440.86 60.9985C1450.15 64.5153 1458.8 64.9021 1468.39 65.514C1473.04 65.8094 1479.05 65.9008 1481.36 71.5205C1486.91 85.0529 1466.38 111.288 1460.65 120.431C1442.36 149.62 1422.54 177.494 1403.79 206.296C1386.3 233.185 1367.24 261.206 1356.37 292.716C1339.07 342.9 1394.37 372.243 1392.82 420.064C1391.86 449.752 1367.3 471.042 1347.86 485.77C1323.92 503.881 1289.45 515.789 1277.47 548.839C1268.55 573.456 1282.55 587.784 1293.34 606.464C1311.61 638.115 1312.86 681.019 1310.96 717.656C1308.39 767.165 1298.37 817.405 1281.32 862.912C1273.59 883.541 1264.12 905 1250.19 921.022C1237.13 936.038 1224.77 939.886 1207.32 936.812C1153.9 927.387 1099.97 901.117 1048.75 877.654C984.386 848.169 920.913 815.619 859.335 778.995C817.346 754.019 774.408 727.595 737.553 693.089C727.947 684.093 718.111 674.316 711.087 662.451C705.777 653.532 703.523 646.168 694.573 641.076C668.047 625.989 631.149 629.935 602.726 631.504C557.28 634 512.052 640.647 466.885 646.633C440.528 650.149 390.877 661.213 369.831 634.676C351.665 611.761 373.586 572.69 384.784 552.504C413.109 501.455 449.545 456.652 483.35 410.519C498.843 389.377 514.944 368.072 527.74 344.567C531.008 338.574 536.246 330.633 537.145 323.354C538.153 315.012 533.445 308.647 528.681 302.352Z" stroke="#EF7B14" stroke-width="5"/>
<path fill-rule="evenodd" clip-rule="evenodd" d="M532.017 314.242C496.165 269.081 452.972 231.979 414.482 189.717C397.225 170.769 379.797 150.891 366.647 127.775C359.574 115.344 352.063 99.6971 354.014 84.2467C359.61 39.9018 425.791 43.9069 452.528 41.3096C492.257 37.4945 537.899 33.6512 573.028 9.74017C596.041 -5.92134 604.669 -29.0511 600.373 -58.8819C595.761 -90.8806 606.073 -114.109 629.541 -131.959C658.964 -154.322 696.105 -163.437 730.268 -169.913C771.427 -177.678 813.108 -181.12 854.802 -180.197C895.352 -179.296 934.637 -187.165 974.919 -192.283C1028.33 -199.061 1083.45 -202.405 1136.25 -188.51C1182.23 -176.41 1223.76 -149.747 1254.89 -108.513C1287.4 -65.4773 1303.5 -11.2568 1329.9 36.3542C1346.37 66.0512 1369.34 105.335 1400.11 116.879C1410.37 120.729 1429.08 115.535 1420.88 134.476C1416.19 145.309 1407.42 154.811 1400.5 163.666C1389.3 177.976 1377.74 191.892 1366.36 206.005C1342.1 236.089 1316.12 266.814 1297.94 302.438C1275.03 347.29 1309.09 381.808 1304.94 427.286C1302.71 451.761 1288.01 471.294 1272.47 486.638C1262.41 496.577 1251.41 505.186 1240.17 513.217C1228.44 521.607 1214.55 527.999 1204.32 538.846C1189.73 554.282 1196.07 572.555 1198.8 592.51C1203.61 627.579 1204.67 663.203 1201.95 698.572C1198.62 741.924 1190.81 786.516 1174.36 825.912C1167.96 841.25 1159.86 857.51 1147.82 867.794C1135.78 878.077 1123.33 877.374 1109.54 874.276C1068.62 865.126 1027.79 843.833 988.981 823.653C940.404 798.39 892.781 770.157 847.304 738.039C815.912 715.866 784.417 691.913 758.153 661.85C750.515 653.101 743.247 643.732 737.371 633.272C733.336 626.1 731.173 616.843 725.327 611.452C707.037 594.622 670.315 599.648 648.865 600.626C606.055 602.576 563.919 611.846 521.164 614.098C497.83 615.33 461.285 618.427 444.149 595.417C428.034 573.787 442.63 539.718 452.261 518.876C471.19 477.896 496.621 441.385 519.414 403.291C528.784 387.615 539.054 371.215 545.124 353.315C550.52 337.365 541.205 325.821 532.017 314.242Z" stroke="#F7B060" stroke-width="5"/>
<path fill-rule="evenodd" clip-rule="evenodd" d="M540.835 314.981C512.298 275.24 477.895 239.963 449.152 199.575C432.327 175.923 403.352 136.161 416.364 102.817C430.639 66.1757 480.397 65.1777 509.159 62.2256C543.391 58.7112 583.592 53.9105 612.888 31.0318C622.154 23.7992 630.047 14.226 633.393 1.61635C636.975 -11.8789 633.059 -23.6873 632.549 -37.1966C631.48 -65.5367 646.089 -88.2889 665.421 -103.914C692.744 -126.005 726.91 -136.45 759.181 -143.732C795.743 -151.945 832.911 -155.994 870.155 -155.822C905.747 -155.681 940.963 -156.595 976.592 -157.649C1023.19 -159.055 1070.44 -156.784 1115.64 -142.453C1160.16 -128.325 1200.64 -101.847 1232.44 -62.9009C1263.46 -24.8962 1284.39 21.557 1302.72 68.8748C1313.12 95.7318 1330.69 135.866 1355.5 149.432C1366.53 155.469 1377.36 155.055 1365.63 170.757C1350.85 190.529 1330.95 206.393 1313.84 223.304C1289.15 247.708 1263.85 272.59 1243.14 301.605C1229.91 320.133 1224.01 338.113 1224.92 362.102C1225.63 380.377 1228.82 398.462 1227.2 416.807C1223.42 459.865 1194.14 489.393 1168.25 516.89C1151.59 534.574 1136.38 548.062 1127.81 573.219C1117.67 602.95 1113.41 635.297 1106.64 666.167C1099.19 700.067 1090.6 735.331 1074.35 765.189C1059.88 791.772 1042.29 803.693 1015.97 796.53C974.904 785.368 934.43 757.872 897.975 732.435C860.871 706.555 824.404 677.455 793.657 641.883C777.056 622.673 765.726 600.118 750.984 579.481C732.441 553.573 690.491 563.385 665.561 565.578C624.176 569.219 493.955 596.463 505.971 508.223C510.986 471.392 530.738 437.401 545.182 404.9C551.169 391.412 559.833 375.225 561.187 359.768C562.663 342.934 549.414 326.944 540.835 314.981Z" stroke="#F38E1C" stroke-width="5"/>
<path fill-rule="evenodd" clip-rule="evenodd" d="M555.902 318.355C534.095 282.342 507.996 248.319 489.284 209.423C477.145 184.232 465.225 150.575 480.884 123.922C498.558 93.8443 537.53 86.833 566.166 83.0003C595.669 79.0551 630.89 75.7358 655.004 52.9295C662.676 45.665 669 35.8688 670.178 24.1387C671.313 12.8867 668.108 1.63481 669.17 -9.82105C671.55 -35.5458 685.018 -56.7416 702.382 -72.1145C753.748 -117.593 830.199 -127.706 892.174 -128.895C923.195 -129.485 955.121 -126.384 986.342 -124.162C1026.86 -121.278 1067.43 -115.09 1106.07 -100.174C1188.22 -68.4717 1243.28 1.83878 1281.74 89.3295C1293.84 116.869 1303.1 146.665 1322.07 168.796C1331.85 180.224 1329.71 188.431 1319.71 198.853C1304.08 215.14 1285.02 227.588 1267.67 241.181C1243 260.513 1217.8 280.134 1195.98 303.292C1180.94 319.256 1170.26 334.636 1167.02 358.574C1164.71 375.642 1165.25 393.033 1163.86 410.206C1161.21 442.83 1152.15 475.207 1136.11 502.268C1123.37 523.717 1108.19 543.211 1092.51 561.798C1072.12 585.996 1054.88 610.582 1039.39 639.302C1018.87 677.32 990.026 747.448 941.677 728.889C888.35 708.41 838.368 656.377 804.155 605.962C792.666 589.034 783.234 568.275 767.738 555.792C744.541 537.135 721.003 537.789 693.412 537.866C652.103 537.972 562.214 548.359 561.243 476.684C560.861 448.287 571.47 421.437 576.55 394.123C582.28 363.532 570.797 342.899 555.902 318.355Z" stroke="#EA5F09" stroke-width="5"/>
<path fill-rule="evenodd" clip-rule="evenodd" d="M572.145 321.566C550.574 274.629 502.204 197.502 538.993 145.309C558.426 117.726 592.798 107.36 621.632 101.183C644.836 96.1863 672.82 94.31 690.352 73.129C703.238 57.556 697.518 34.8921 702.455 15.3978C708.583 -8.76993 722.647 -28.5454 739.93 -43.4086C788.227 -84.9484 855.381 -97.6963 913.479 -100.409C973.819 -103.22 1040.3 -90.0715 1097.08 -64.7794C1167.88 -33.2328 1220.92 26.5013 1258.01 102.146C1264.86 116.109 1271.08 130.438 1277.65 144.571C1282.06 154.051 1288.61 163.222 1292.09 173.194C1297.88 189.821 1291.06 203.412 1280.11 214.249C1264.37 229.85 1245.04 240.954 1227.09 252.661C1202.55 268.684 1177.46 284.419 1154.64 303.217C1139.3 315.867 1123.24 329.493 1117.75 351.44C1114 366.409 1113.23 382.263 1113.36 397.766C1113.65 431.006 1112.14 457.886 1098.75 488.33C1076.7 538.31 1042.81 583.251 1006.99 620.644C978.889 649.991 934.418 695.579 893.469 675.958C856.729 658.389 835.237 616.336 811.031 582.337C799.262 565.808 786.041 550.713 770.507 538.956C750.922 524.135 732.485 517.916 709.281 515.491C670.227 511.408 611.339 510.347 599.266 456.094C594.808 436.073 597.353 415.335 595.015 395.053C591.96 368.236 583.027 345.242 572.145 321.566Z" stroke="#EF7B14" stroke-width="5"/>
<path fill-rule="evenodd" clip-rule="evenodd" d="M594.574 323.305C579.214 271.946 559.035 207.221 596.134 161.576C614.104 139.464 639.381 127.103 663.844 117.865C681.365 111.245 709.185 109.296 719.927 88.943C727.816 73.9647 728.908 53.3018 736.045 37.2542C745.853 15.1914 760.709 -2.9809 778.139 -17.2064C823.546 -54.2756 882.687 -68.5996 936.621 -72.7012C1053.81 -81.6009 1173.05 -10.7198 1235.76 105.898C1254.46 140.66 1278.59 177.659 1248.38 213.173C1215.39 251.917 1165.69 270.068 1126.32 297.597C1111.27 308.108 1092.1 320.744 1083.71 339.774C1078.66 351.214 1078.31 365.566 1078.08 378.159C1077.47 410.233 1075.17 439.078 1064.04 469.007C1046.84 515.257 1019.41 557.926 988.334 592.878C961.23 623.355 922.578 659.172 883.215 637.201C853.035 620.316 833.893 584.478 810.443 558.06C784.347 528.638 752.073 508.813 716.631 499.125C682.154 489.726 644.339 483.387 626.169 443.454C619.936 429.756 613.424 412.02 611.088 396.859C607.316 371.862 601.793 347.262 594.574 323.305V323.305Z" stroke="#F38E1C" stroke-width="5"/>
<path fill-rule="evenodd" clip-rule="evenodd" d="M619.584 323.666C612.478 271.806 611.688 217.729 644.704 176.855C660.113 157.787 679.591 144.239 699.288 131.965C713.779 122.934 728.745 115.316 739.568 100.51C749.595 86.8009 757.217 70.8833 766.899 56.8155C779.669 38.1728 794.95 22.0343 812.153 9.0204C855.275 -23.5394 907.733 -38.7677 957.919 -44.0501C982.213 -46.6175 1008.57 -47.9539 1032.7 -40.9552C1056 -34.2027 1079.04 -23.5253 1100.47 -11.0753C1146.02 15.365 1185.5 54.0864 1214.12 103.042C1233.74 136.622 1244.36 169.273 1218.94 203.338C1190.29 241.736 1145.37 262.922 1108.35 287.843C1082.96 304.935 1054.49 321.69 1049.75 358.013C1045.97 386.915 1042.91 414.347 1033.13 441.667C1018.59 481.963 997.205 518.466 970.248 549.01C945.596 576.836 914.408 600.449 879.145 585.586C851.206 573.791 829.53 547.364 805.12 528.471C777.916 507.37 748.028 495.736 716.555 486.381C688.27 477.94 661.638 464.97 643.356 437.432C639.615 431.805 635.685 425.679 632.8 419.383C629.12 411.351 629.405 403.388 628.682 394.385C626.8 370.624 622.797 347.138 619.584 323.666Z" stroke="#EA5F09" stroke-width="5"/>
<path fill-rule="evenodd" clip-rule="evenodd" d="M647.159 319.427C647.766 270.167 657.995 223.613 686.012 185.224C697.99 168.801 712.292 155.274 725.472 140.226C736.084 128.094 746.112 116.822 758.315 106.825C787.26 83.1528 810.784 52.5203 841.545 31.4411C882.607 3.26037 929.643 -12.3165 976.315 -18.5445C999.105 -21.588 1022.65 -22.6518 1045.7 -19.2137C1065.51 -16.2618 1084.47 -5.89836 1102.06 4.70465C1136.55 25.4739 1170.03 54.9932 1192.42 92.3398C1241.78 174.677 1144.46 234.54 1094.51 269.597C1071.54 285.723 1036.43 304.4 1027.02 336.343C1020.3 359.162 1016.2 382.369 1007.54 404.484C984.268 463.875 937.032 533.728 874.084 524.428C847.148 520.455 822.598 504.314 797.453 493.479C771.561 482.319 744.838 476.098 717.926 469.271C692.775 462.896 672.729 453.821 656.484 429.494C648.719 417.877 649.405 403.97 648.713 389.717C647.584 366.306 646.886 342.761 647.159 319.427Z" stroke="#EF7B14" stroke-width="5"/>
<path fill-rule="evenodd" clip-rule="evenodd" d="M672.269 313.118C682.382 238.764 719.941 157.591 775.167 114.411C840.13 63.6161 910.507 20.8432 988.123 8.54704C1024.11 2.84539 1063.53 0.0402509 1097.48 18.6849C1123.32 32.8652 1153.34 54.0618 1167.56 83.8707C1202.35 156.783 1124.96 214.826 1080.87 248.558C1057.13 266.717 1026.92 284.413 1009.02 310.931C998.643 326.307 993.343 346.646 984.962 363.533C959.565 414.707 917.758 455.982 865.679 463.364C841.6 466.774 817.345 462.556 793.448 459.202C768.986 455.771 744.221 453.908 719.911 449.121C700.505 445.296 677.636 438.821 670.489 414.77C661.476 384.462 668.143 343.482 672.269 313.118Z" stroke="#F7B060" stroke-width="5"/>
<path fill-rule="evenodd" clip-rule="evenodd" d="M696.892 301.174C711.641 231.269 742.873 163.081 795.377 121.349C823.22 99.22 855.541 83.9444 886.572 68.8517C921.747 51.7466 958.498 38.4693 996.034 31.8834C1042.77 23.6792 1118.46 16.2841 1142.88 77.9566C1167.11 139.172 1105.87 193.351 1069.66 224.225C1046.44 244.004 1021.59 262.158 999.405 283.78C987.375 295.502 978.109 309.047 967.929 322.796C939.794 360.89 899.685 391.047 858.803 407.146C819.18 422.752 770.163 429.662 728.337 424.504C710.29 422.288 697.391 414.808 691.933 393.545C684.37 363.986 690.796 330.05 696.892 301.174Z" stroke="#EA5F09" stroke-width="5"/>
<path fill-rule="evenodd" clip-rule="evenodd" d="M721.359 282.346C736.01 220.797 767.614 164.581 813.711 127.641C865.384 86.2299 931.922 63.2193 993.078 51.5177C1025.58 45.3026 1096.03 28.451 1112.6 76.6795C1129.17 124.908 1081.27 172.436 1053.7 198.599C1020.24 230.306 984.165 260.919 948.133 289.367C916.827 314.101 883.422 339.389 849.513 358.49C830.388 369.326 810.466 378.173 789.983 384.927C774.815 389.888 755.528 397.287 739.626 393.594C699.517 384.268 714.351 311.775 721.359 282.346Z" stroke="#F38E1C" stroke-width="5"/>
<path fill-rule="evenodd" clip-rule="evenodd" d="M751.56 263.915C783.708 147.519 885.563 90.2739 983.633 70.3206C1006.42 65.6889 1070.3 48.9897 1083.04 84.5459C1095.39 119.02 1056.13 159.903 1037.75 179.273C980.8 239.295 910.438 283.798 843.765 327.886C822.953 341.648 785.419 371.511 759.603 357.736C731.574 342.751 744.9 288.05 751.56 263.915Z" stroke="#F7B060" stroke-width="5"/>
<path fill-rule="evenodd" clip-rule="evenodd" d="M784.49 241.512C812.448 155.795 893.764 106.633 968.527 90.4266C986.839 86.461 1033.35 74.1143 1047.21 98.0343C1060.05 120.161 1029.42 152.223 1017.96 164.964C992.45 193.334 962.216 216.706 932.348 239.171C904.731 259.955 876.816 281.259 847.757 298.837C832.451 308.09 803.745 327.833 786.352 313.546C767.627 298.176 778.283 260.545 784.49 241.512Z" stroke="#F7B060" stroke-width="5"/>
<path fill-rule="evenodd" clip-rule="evenodd" d="M820.777 216.469C842.086 160.492 899.156 124.143 949.5 112.064C963.046 108.821 992.324 100.407 1003.75 115.356C1014.27 129.124 997.316 149.307 989.791 158.628C956.44 199.944 907.601 236.849 862.853 259.515C851.602 265.213 831.377 276.399 819.803 264.897C807.931 253.085 815.882 229.321 820.777 216.469Z" stroke="#EF7B14" stroke-width="5"/>
<path fill-rule="evenodd" clip-rule="evenodd" d="M859.272 192.955C871.279 165.16 902.662 144.188 928.657 137.513C946.952 132.819 968.944 136.874 952.999 161.069C937.16 185.079 907.771 207.009 882.861 216.731C863.856 224.145 848.961 216.831 859.272 192.955Z" stroke="#EA5F09" stroke-width="5"/>
<path fill-rule="evenodd" clip-rule="evenodd" d="M-114.431 385.472C-115.201 330.557 -140.397 273.486 -127.954 217.531C-117.736 171.576 -66.2965 167.739 -35.4376 146.919C-10.9154 130.378 3.0011 101.076 16.2627 72.9621C28.1782 47.7218 38.8809 21.7227 51.433 -3.103C59.5586 -19.1522 73.5115 -50.6673 91.133 -51.2365C108.003 -51.7846 123.471 -27.226 133.271 -12.7086C146.047 6.21453 157.374 26.3885 169.781 45.6138C190.689 78.0424 215.775 102.046 244.5 124.764C277.188 150.613 310.416 175.579 344.183 199.662C369.045 217.447 394.076 235.098 417.974 254.64C432.964 266.902 466.048 289.907 466.2 312.512C466.273 323.299 457.45 335.244 451.501 343.866C441.435 358.461 429.962 371.805 418.453 384.86C397.017 409.18 374.672 432.397 352.569 455.894C323.881 486.391 296.479 516.388 271.259 551.009C245.185 586.846 220.275 623.863 194.855 660.374C177.64 685.108 160.443 712.885 135.611 728.063C104.51 747.035 78.981 727.03 47.5279 726.798C20.471 726.594 22.466 653.965 19.0278 633.77C15.5775 613.33 7.97345 594.301 5.02642 573.811C1.35173 548.233 1.30321 522.066 0.399695 496.214C-0.697861 464.593 -1.13445 434.491 -30.3076 422.433C-46.9104 415.582 -64.8715 414.141 -82.0564 410.037C-93.1896 407.374 -114.189 402.821 -114.431 385.472Z" stroke="#F38E1C" stroke-width="5"/>
<path fill-rule="evenodd" clip-rule="evenodd" d="M-101.13 375.703C-103.966 329.671 -120.721 270.754 -104.877 223.237C-91.3401 182.631 -49.005 177.367 -20.4982 156.037C3.03479 138.443 13.5108 109.653 25.2742 81.3697C34.7117 58.681 43.8638 35.7742 54.5766 13.8104C62.4715 -2.37566 74.5265 -29.702 90.9419 -33.0518C105.699 -36.0638 121.526 -11.9395 129.809 0.333756C141.895 18.251 152.231 37.7095 162.907 56.7598C181.667 90.2228 200.876 120.315 228.332 144.897C255.91 169.584 286.081 188.043 316.573 207.255C340.428 222.287 364.161 237.755 386.826 255.11C403.709 268.03 427.983 284.568 435.708 307.609C441.823 325.836 410.808 356.083 401.662 366.758C382.836 388.708 362.886 409.314 342.9 429.793C318.535 454.747 293.392 476.57 271.876 505.037C233.391 555.931 201.222 619.311 151.703 657.137C121.835 679.952 88.5977 685.786 55.3782 682.373C42.2241 681.022 39.0661 659.508 37.4082 646.961C34.651 626.116 34.3048 604.912 32.1853 583.983C30.1995 564.39 25.7904 545.776 22.2377 526.564C18.6425 507.099 17.6344 487.155 14.9865 467.555C13.3468 455.388 11.7253 441.228 4.55305 431.446C-2.8682 421.32 -15.1114 417.076 -25.8121 413.853C-45.9078 407.857 -99.1257 408.188 -101.13 375.703Z" stroke="#EF7B14" stroke-width="5"/>
<path fill-rule="evenodd" clip-rule="evenodd" d="M-84.01 356.433C-88.7797 314.18 -95.4573 261.552 -76.026 222.623C-60.1432 190.792 -26.2692 183.925 -2.07432 163.185C18.0496 145.938 25.6508 118.506 35.6398 93.0151C43.8364 72.1061 52.0755 51.1057 62.0099 31.2088C69.5442 16.1192 79.2538 -4.34 94.213 -9.60414C107.003 -14.1022 121.452 6.04773 128.543 16.077C140.616 33.1697 150.459 52.3216 160.235 71.2206C176.228 102.145 190.944 135.177 213.705 160.331C235.822 184.741 262.095 199.148 288.86 215.348C309.36 227.76 329.733 240.65 349.049 255.452C363.881 266.809 382.261 280.268 389.99 299.167C396.673 315.466 379.514 334.758 370.941 346.256C356.784 365.233 341.071 382.642 325.577 400.121C308.856 418.977 290.336 436.372 274.156 455.693C240.13 496.351 212.945 541.367 171.008 572.516C143.848 592.694 107.301 611.024 75.195 607.728C52.1059 605.352 53.625 546.16 51.4072 527.247C47.7616 496.323 40.7194 463.832 29.5334 435.346C19.9271 410.937 -2.90065 403.41 -23.8995 397.935C-37.0542 394.498 -50.8408 392.643 -63.564 387.329C-78.2924 381.173 -82.011 374.144 -84.01 356.433Z" stroke="#F7B060" stroke-width="5"/>
<path fill-rule="evenodd" clip-rule="evenodd" d="M-68.0407 336.628C-70.8806 300.904 -70.2421 258.661 -51.8464 227.759C-35.7251 200.691 -7.02181 193.565 13.3928 172.242C29.3256 155.607 35.5832 128.483 44.1516 106.484C54.6235 79.5854 69.2974 29.9053 95.7142 19.7832C120.288 10.373 145.988 70.4853 154.884 88.4105C168.969 116.782 180.748 147.895 197.83 174.096C212.54 196.652 232.25 209.122 253.169 222.521C279.841 239.636 320.336 259.929 334.597 293.284C345.226 318.139 310.661 355.088 298.857 372.309C286.512 390.297 277.214 411.62 264.474 428.974C244.37 456.359 211.792 478.408 184.895 495.233C158.746 511.6 124.789 529.716 95.1244 528.637C75.628 527.933 71.9184 493.055 67.7589 476.018C61.7993 451.798 53.8755 430.095 36.8542 413.622C19.5288 396.853 -0.891944 388.951 -22.3586 382.036C-33.3778 378.512 -45.9477 375.763 -55.8053 368.643C-66.6968 360.897 -66.9461 350.359 -68.0407 336.628Z" stroke="#EA5F09" stroke-width="5"/>
<path fill-rule="evenodd" clip-rule="evenodd" d="M-48.5837 316.037C-48.4261 285.174 -42.3343 252.264 -24.271 228.458C-9.22636 208.629 14.3226 202 28.7247 181.729C40.1324 165.681 45.9393 143.151 53.5768 124.515C62.9176 101.676 76.1256 61.7797 99.3533 53.8537C122.023 46.1381 142.075 90.0819 150.767 107.47C163.496 132.967 173.801 159.992 186.645 185.419C196.707 205.367 209.012 218.224 225.396 231.081C244.629 246.183 271.463 262.911 281.738 287.896C289.145 305.985 271.215 334.891 264.705 350.827C260.341 361.531 256.346 372.403 254.152 384.004C252.442 393.038 252.273 401.399 247.32 409.157C234.852 428.67 207.515 431.217 188.966 437.649C164.333 446.185 138.195 455.885 112.416 457.737C96.571 458.895 88.485 441.983 79.4412 430.087C68.7548 416.024 53.6253 405.909 40.4113 395.297C22.9723 381.269 3.99377 372.543 -15.6394 363.607C-24.4953 359.574 -34.8968 355.618 -41.7584 347.601C-48.9231 339.289 -48.6382 327.175 -48.5837 316.037Z" stroke="#F38E1C" stroke-width="5"/>
<path fill-rule="evenodd" clip-rule="evenodd" d="M-28.1479 297.715C-25.017 271.795 -15.2602 247.021 1.21964 228.698C13.8525 214.63 30.6297 206.709 40.7688 189.807C50.2162 174.051 56.7996 156.135 64.6026 139.289C72.8608 121.479 85.1296 91.7108 104.176 86.8644C124.703 81.6452 140.515 111.673 149.271 128.316C160.332 149.347 168.736 171.976 178.627 193.732C186.077 209.948 195.582 224.778 206.823 237.729C218.613 251.382 234.601 264.458 240.565 283.232C245.838 299.861 235.972 319.978 234.231 336.838C232.368 354.852 235.632 373.774 225.305 389.241C204.008 421.14 150.557 415.225 120.001 415.907C89.8503 416.611 65.6099 397.091 41.2117 378.522C25.096 366.261 8.31275 355.879 -8.20954 344.456C-25.0534 332.801 -30.9027 320.526 -28.1479 297.715Z" stroke="#F7B060" stroke-width="5"/>
<path fill-rule="evenodd" clip-rule="evenodd" d="M-9.16114 282.879C0.0976733 245.328 29.0155 225.37 49.6885 196.992C66.6033 173.761 79.2863 125.65 107.773 119.286C140.115 112.063 159.477 175.809 170.721 200.407C183.198 227.686 205.419 249.876 214.659 278.754C219.516 293.911 215.345 308.054 212.759 323.204C209.924 339.839 207.793 356.848 198.006 370.238C178.741 396.588 141.117 396.405 114.021 397.13C85.9709 397.884 61.1573 379.826 38.8086 361.804C15.1061 342.719 -18.6446 321.388 -9.16114 282.879Z" stroke="#F7B060" stroke-width="5"/>
<path fill-rule="evenodd" clip-rule="evenodd" d="M6.34632 272.697C16.7793 245.943 38.7032 224.193 56.493 203.66C71.3413 186.543 87.3149 152.084 109.954 149.627C136.563 146.73 152.689 183.526 163.159 206.089C173.463 228.259 188.312 251.667 194.017 276C199.968 301.347 184.122 335.484 169.011 353.42C152.157 373.421 124.582 380.811 100.922 380.013C76.1481 379.202 53.4169 362.672 34.6547 345.527C14.5961 327.198 -5.78673 303.755 6.34632 272.697Z" stroke="#F38E1C" stroke-width="5"/>
<path fill-rule="evenodd" clip-rule="evenodd" d="M20.7358 267.66C30.7014 245.408 47.976 226.584 63.9039 209.793C76.1957 196.83 94.3334 174.789 112.067 174.249C131.576 173.653 148.11 192.154 155.866 211.118C163.511 229.823 171.567 253.274 172.712 273.794C175.197 318.481 124.598 368.538 86.6021 364.464C50.5776 360.601 0.865708 311.996 20.7358 267.66Z" stroke="#F7B060" stroke-width="5"/>
<path fill-rule="evenodd" clip-rule="evenodd" d="M34.0433 265.206C47.7915 236.214 81.186 194.881 112.103 193.899C147.59 192.777 156.498 238.773 151.873 272.106C147.174 306.126 106.259 355.368 73.6358 348.714C41.7954 342.221 17.7499 299.591 34.0433 265.206Z" stroke="#EF7B14" stroke-width="5"/>
<path fill-rule="evenodd" clip-rule="evenodd" d="M48.0943 260.519C59.7345 236.243 84.5736 205.922 110.48 205.005C141.349 203.919 140.766 242.752 133.767 266.922C126.488 292.017 94.4303 334.878 67.4015 328.111C41.1188 321.504 36.9395 283.785 48.0943 260.519Z" stroke="#F38E1C" stroke-width="5"/>
<path fill-rule="evenodd" clip-rule="evenodd" d="M60.3322 257.725C68.0155 240.403 87.245 218.511 105.525 217.81C127.87 216.968 123.526 247.769 117.753 262.635C110.891 280.325 87.8898 311.062 68.5873 306.08C49.5829 301.177 53.9934 271.996 60.3322 257.725Z" stroke="#F7B060" stroke-width="5"/>
</g>
<defs>
<clipPath id="clip0">
<rect width="1440" height="480" fill="white"/>
</clipPath>
</defs>
</svg>
